<?xml version="1.0" encoding="utf-8"?>
<!-- Svg Vector Icons : http://www.onlinewebfonts.com/icon -->
<!DOCTYPE svg PUBLIC "-//W3C//DTD SVG 1.1//EN" "http://www.w3.org/Graphics/SVG/1.1/DTD/svg11.dtd">
<svg version="1.1" xmlns="http://www.w3.org/2000/svg" xmlns:xlink="http://www.w3.org/1999/xlink" x="0px" y="0px" viewBox="0 0 256 256" enable-background="new 0 0 256 256" xml:space="preserve">
<metadata> Svg Vector Icons : http://www.onlinewebfonts.com/icon </metadata>
<g><g><path fill="#000000" d="M110,145.3l11-6.4l-14.3-12L110,145.3z"/><path fill="#000000" d="M246,127.9c0-2.7-1.3-5.1-3.3-6.6l0-0.1l-28.5-16.5l16.4-28.5l0,0c1-2.3,1-5-0.4-7.4s-3.7-3.7-6.2-4v-0.1h-33V32h-0.1c-0.3-2.5-1.7-4.8-4-6.2c-2.3-1.3-5.1-1.4-7.4-0.4l0-0.1l-29,16.8l-16-27.8l0,0c-1.5-2-3.9-3.3-6.6-3.3c-2.7,0-5.1,1.3-6.6,3.3l-0.1,0l-16.4,28.3L76.6,26.3l0,0c-2.3-1-5-1-7.4,0.4c-2.3,1.3-3.7,3.7-4,6.2h-0.1v32.7H32.7v0.1c-2.5,0.3-4.8,1.7-6.2,4s-1.4,5.1-0.4,7.4l-0.1,0l16,27.8l-28.7,16.6l0,0c-2,1.5-3.3,3.9-3.3,6.6c0,2.7,1.3,5.1,3.3,6.6l0,0.1l28.5,16.5l-16.4,28.5l0,0c-1,2.3-1,5,0.4,7.4c1.3,2.3,3.7,3.7,6.2,4v0.1H65v32.8h0.1c0.3,2.5,1.7,4.8,4,6.2c2.3,1.3,5.1,1.4,7.4,0.4l0,0.1l29-16.8l16.1,27.8l0,0c1.5,2,3.9,3.3,6.6,3.3s5.1-1.3,6.6-3.3l0.1,0l16.4-28.3l28.1,16.2l0,0c2.3,1,5,1,7.4-0.4c2.3-1.3,3.8-3.7,4-6.2h0.1v-32.7h32.5v0c2.5-0.3,4.8-1.7,6.2-4c1.3-2.3,1.4-5.1,0.4-7.4l0.1,0l-16-27.8l28.8-16.6l0,0C244.7,133,246,130.6,246,127.9z M89.9,174.5c-6.8,3.9-13,4.5-18.3,3.1l0.7-8.3c4,1.2,9.1,1.2,14-1.7c4.2-2.4,5.1-5.4,3.9-7.5c-3.5-6.1-21.4,9.9-29.1-3.4c-3.4-5.9-1.1-13.7,7.2-18.5c5.6-3.3,11.2-4.2,16.6-3l-0.9,8c-4.4-1-8.9,0-12.5,2.1c-3.2,1.8-4.2,4.3-3,6.4c3.2,5.6,21.3-9.9,28.9,3.3C101.2,161.5,99.3,169,89.9,174.5z M132.5,149l-5.7-4.7l-15.1,8.7l1.2,7.3l-8.5,4.9l-6.8-43.2l9.4-5.4l34,27.5L132.5,149z M144,142.4l-20.4-35.3l7.6-4.4l16.6,28.7l14.9-8.6l3.8,6.6L144,142.4z M171.6,126.5l-20.4-35.3l25-14.4l3.8,6.6l-17.5,10.1l4.3,7.4l17.1-9.9l3.8,6.6l-17.1,9.9l4.6,8l17.5-10.1l3.8,6.6L171.6,126.5z"/></g></g>
</svg>