<svg width="1042" height="904" viewBox="0 0 1042 904" fill="none" xmlns="http://www.w3.org/2000/svg">
<path d="M171.933 621.387C171.707 616.28 171.547 611.16 171.547 606C171.547 419.373 323.373 267.533 510.013 267.533C696.653 267.533 848.48 419.36 848.48 606C848.48 611.16 848.32 616.28 848.093 621.387H909.64C909.8 616.267 910 611.16 910 606C910 385.08 730.92 206 510 206C289.08 206 110 385.08 110 606C110 611.16 110.2 616.267 110.387 621.387H171.933Z" fill="#E64C3C"/>
<path d="M233.853 621.387C233.573 616.267 233.08 611.2 233.08 606C233.08 453.307 357.307 329.08 510 329.08C662.693 329.08 786.92 453.32 786.92 606C786.92 611.187 786.427 616.267 786.147 621.387H848.08C848.307 616.28 848.467 611.16 848.467 606C848.467 419.373 696.64 267.533 510 267.533C323.36 267.533 171.533 419.373 171.533 606C171.533 611.16 171.693 616.28 171.92 621.387H233.853Z" fill="#F0C419"/>
<path d="M295.4 621.387C295.04 616.28 294.627 611.2 294.627 606C294.627 487.24 391.24 390.613 510.013 390.613C628.787 390.613 725.4 487.227 725.4 606C725.4 611.187 724.987 616.28 724.627 621.387H786.16C786.44 616.267 786.933 611.2 786.933 606C786.933 453.307 662.707 329.08 510.013 329.08C357.32 329.08 233.08 453.307 233.08 606C233.08 611.187 233.573 616.267 233.853 621.387H295.4Z" fill="#71C285"/>
<path d="M356.933 621.387C356.427 616.32 356.16 611.2 356.16 606C356.16 521.173 425.173 452.16 510 452.16C594.827 452.16 663.84 521.187 663.84 606C663.84 611.187 663.56 616.32 663.067 621.387H724.6C724.96 616.28 725.373 611.2 725.373 606C725.373 487.24 628.76 390.613 509.987 390.613C391.213 390.613 294.6 487.227 294.6 606C294.6 611.187 295.013 616.28 295.373 621.387H356.933Z" fill="#0096E6"/>
<path d="M419.08 621.387C418.227 616.373 417.693 611.253 417.693 606C417.693 555.093 459.093 513.693 510 513.693C560.907 513.693 602.307 555.093 602.307 606C602.307 611.253 601.76 616.373 600.92 621.387H663.067C663.573 616.32 663.84 611.2 663.84 606C663.84 521.173 594.827 452.16 510 452.16C425.173 452.16 356.16 521.187 356.16 606C356.16 611.187 356.44 616.32 356.933 621.387H419.08Z" fill="#546A79"/>
<path d="M101.847 632.728L102.146 632.672L102.233 632.381C108.703 610.933 120.368 591.038 136.212 575.194C161.361 550.045 196.717 535.397 232.283 535.397C267.85 535.397 303.206 550.045 328.355 575.194C334.479 581.318 339.967 588.057 344.786 595.248L344.971 595.525L345.298 595.461C351.877 594.165 358.571 593.477 365.278 593.477C392.912 593.477 420.378 604.857 439.918 624.397C456.886 641.364 467.69 664.316 470.242 688.16L470.289 688.605L470.736 688.607C483.744 688.673 496.658 694.045 505.857 703.244C515.112 712.5 520.5 725.509 520.5 738.598C520.5 751.688 515.112 764.704 505.857 773.96C496.601 783.215 483.585 788.603 470.495 788.603H116.123C95.5417 788.603 75.0812 780.128 60.5276 765.575C45.9741 751.022 37.5001 730.561 37.5001 709.979C37.5001 689.397 45.9741 668.944 60.5276 654.39C71.6919 643.226 86.3381 635.656 101.847 632.728Z" fill="#E5F1F2" stroke="#C5D6EF"/>
<path d="M585.848 632.728L586.146 632.672L586.233 632.381C592.703 610.933 604.368 591.038 620.212 575.194C645.361 550.045 680.717 535.397 716.283 535.397C751.85 535.397 787.206 550.045 812.355 575.194C818.479 581.318 823.967 588.057 828.786 595.248L828.971 595.525L829.298 595.461C835.877 594.165 842.571 593.477 849.278 593.477C876.912 593.477 904.378 604.857 923.918 624.397C940.886 641.364 951.69 664.316 954.242 688.16L954.289 688.605L954.736 688.607C967.744 688.673 980.658 694.045 989.857 703.244C999.112 712.5 1004.5 725.509 1004.5 738.598C1004.5 751.688 999.112 764.704 989.857 773.96C980.601 783.215 967.585 788.603 954.495 788.603H600.124C579.542 788.603 559.081 780.128 544.528 765.575C529.974 751.022 521.5 730.561 521.5 709.979C521.5 689.397 529.974 668.944 544.528 654.39C555.692 643.226 570.338 635.656 585.848 632.728Z" fill="#E5F1F2" stroke="#C5D6EF"/>
<path d="M126.781 605.281L126 638.406L102.719 639.344L96.7812 713.406L63.8125 715.125L63.9688 641.062L40.6875 642.312L41.625 605.438L126.781 605.281ZM216.547 653.875C216.547 658.406 216.234 662.938 215.609 667.469C206.703 668.042 197.849 668.979 189.047 670.281C180.245 671.531 171.443 672.781 162.641 674.031C163.995 677.781 166.104 680.776 168.969 683.016C171.885 685.255 175.349 686.375 179.359 686.375C181.443 686.375 183.708 685.984 186.156 685.203C188.656 684.422 191.13 683.458 193.578 682.312C196.026 681.115 198.37 679.839 200.609 678.484C202.849 677.13 204.776 675.906 206.391 674.812L202.641 710.281C200.609 711.844 198.396 713.172 196 714.266C193.656 715.359 191.208 716.245 188.656 716.922C186.104 717.599 183.526 718.094 180.922 718.406C178.318 718.719 175.766 718.875 173.266 718.875C168.109 718.875 163.396 718.172 159.125 716.766C154.854 715.359 150.974 713.406 147.484 710.906C144.047 708.354 141.026 705.359 138.422 701.922C135.818 698.484 133.656 694.734 131.938 690.672C130.219 686.609 128.917 682.312 128.031 677.781C127.146 673.25 126.703 668.667 126.703 664.031C126.703 659.188 127.146 654.344 128.031 649.5C128.917 644.656 130.245 639.995 132.016 635.516C133.839 631.036 136.104 626.896 138.812 623.094C141.573 619.24 144.776 615.88 148.422 613.016C152.068 610.151 156.182 607.911 160.766 606.297C165.401 604.682 170.505 603.875 176.078 603.875C180.714 603.875 184.932 604.526 188.734 605.828C192.589 607.078 196 608.849 198.969 611.141C201.99 613.38 204.594 616.062 206.781 619.188C209.021 622.312 210.844 625.75 212.25 629.5C213.708 633.198 214.776 637.13 215.453 641.297C216.182 645.411 216.547 649.604 216.547 653.875ZM185.297 649.812C185.297 648.354 185.141 646.87 184.828 645.359C184.516 643.797 183.995 642.391 183.266 641.141C182.589 639.891 181.677 638.875 180.531 638.094C179.385 637.26 177.953 636.844 176.234 636.844C174.151 636.844 172.302 637.417 170.688 638.562C169.125 639.656 167.771 641.062 166.625 642.781C165.479 644.448 164.542 646.271 163.812 648.25C163.083 650.229 162.536 652.052 162.172 653.719L185.297 651.531V649.812ZM296.234 610.281L293.422 643.25C291.911 642.833 290.427 642.547 288.969 642.391C287.51 642.234 286.026 642.156 284.516 642.156C280.818 642.156 277.276 642.625 273.891 643.562C270.557 644.5 267.589 645.932 264.984 647.859C262.432 649.786 260.375 652.234 258.812 655.203C257.302 658.12 256.547 661.583 256.547 665.594C256.547 668.51 256.964 671.062 257.797 673.25C258.682 675.385 259.906 677.182 261.469 678.641C263.083 680.047 265.01 681.115 267.25 681.844C269.542 682.573 272.068 682.938 274.828 682.938C276.755 682.938 278.734 682.755 280.766 682.391C282.797 681.974 284.828 681.427 286.859 680.75C288.891 680.073 290.844 679.292 292.719 678.406C294.594 677.521 296.339 676.583 297.953 675.594L296.703 712.312C294.672 713.354 292.484 714.292 290.141 715.125C287.797 715.906 285.375 716.583 282.875 717.156C280.427 717.781 277.953 718.25 275.453 718.562C273.005 718.875 270.661 719.031 268.422 719.031C261.026 719.031 254.281 717.651 248.188 714.891C242.146 712.13 236.938 708.38 232.562 703.641C228.24 698.849 224.88 693.302 222.484 687C220.089 680.698 218.891 673.979 218.891 666.844C218.891 658.302 220.089 650.333 222.484 642.938C224.932 635.542 228.5 629.135 233.188 623.719C237.927 618.25 243.76 613.979 250.688 610.906C257.667 607.781 265.661 606.219 274.672 606.219C278.266 606.219 281.911 606.505 285.609 607.078C289.307 607.651 292.849 608.719 296.234 610.281ZM396.469 713.875L357.406 715.75L357.094 682.781H339.125L338.031 717H303.031L306 607.156L343.188 608.875L340.844 664.969H358.188L358.344 606.219L393.969 607.156L396.469 713.875ZM527.875 717L488.812 718.875L488.5 682.781H470.531L469.438 717H434.438L437.406 607.156L474.594 608.875L472.25 664.969H489.594L489.75 604.656L525.375 605.594L527.875 717ZM622.484 653.875C622.484 658.406 622.172 662.938 621.547 667.469C612.641 668.042 603.786 668.979 594.984 670.281C586.182 671.531 577.38 672.781 568.578 674.031C569.932 677.781 572.042 680.776 574.906 683.016C577.823 685.255 581.286 686.375 585.297 686.375C587.38 686.375 589.646 685.984 592.094 685.203C594.594 684.422 597.068 683.458 599.516 682.312C601.964 681.115 604.307 679.839 606.547 678.484C608.786 677.13 610.714 675.906 612.328 674.812L608.578 710.281C606.547 711.844 604.333 713.172 601.938 714.266C599.594 715.359 597.146 716.245 594.594 716.922C592.042 717.599 589.464 718.094 586.859 718.406C584.255 718.719 581.703 718.875 579.203 718.875C574.047 718.875 569.333 718.172 565.062 716.766C560.792 715.359 556.911 713.406 553.422 710.906C549.984 708.354 546.964 705.359 544.359 701.922C541.755 698.484 539.594 694.734 537.875 690.672C536.156 686.609 534.854 682.312 533.969 677.781C533.083 673.25 532.641 668.667 532.641 664.031C532.641 659.188 533.083 654.344 533.969 649.5C534.854 644.656 536.182 639.995 537.953 635.516C539.776 631.036 542.042 626.896 544.75 623.094C547.51 619.24 550.714 615.88 554.359 613.016C558.005 610.151 562.12 607.911 566.703 606.297C571.339 604.682 576.443 603.875 582.016 603.875C586.651 603.875 590.87 604.526 594.672 605.828C598.526 607.078 601.938 608.849 604.906 611.141C607.927 613.38 610.531 616.062 612.719 619.188C614.958 622.312 616.781 625.75 618.188 629.5C619.646 633.198 620.714 637.13 621.391 641.297C622.12 645.411 622.484 649.604 622.484 653.875ZM591.234 649.812C591.234 648.354 591.078 646.87 590.766 645.359C590.453 643.797 589.932 642.391 589.203 641.141C588.526 639.891 587.615 638.875 586.469 638.094C585.323 637.26 583.891 636.844 582.172 636.844C580.089 636.844 578.24 637.417 576.625 638.562C575.062 639.656 573.708 641.062 572.562 642.781C571.417 644.448 570.479 646.271 569.75 648.25C569.021 650.229 568.474 652.052 568.109 653.719L591.234 651.531V649.812ZM721.781 710.281L683.031 715.281L678.344 697.625H660.531L656.625 715.281L616.781 711.375L647.875 607.312L691.312 605.125L721.781 710.281ZM675.531 673.719L669.594 646.531L663.812 673.719H675.531ZM810.688 607.469L782.094 713.094L743.344 715.281L708.188 613.25L745.219 609.812L760.219 669.188L774.75 605.125L810.688 607.469ZM896.234 653.875C896.234 658.406 895.922 662.938 895.297 667.469C886.391 668.042 877.536 668.979 868.734 670.281C859.932 671.531 851.13 672.781 842.328 674.031C843.682 677.781 845.792 680.776 848.656 683.016C851.573 685.255 855.036 686.375 859.047 686.375C861.13 686.375 863.396 685.984 865.844 685.203C868.344 684.422 870.818 683.458 873.266 682.312C875.714 681.115 878.057 679.839 880.297 678.484C882.536 677.13 884.464 675.906 886.078 674.812L882.328 710.281C880.297 711.844 878.083 713.172 875.688 714.266C873.344 715.359 870.896 716.245 868.344 716.922C865.792 717.599 863.214 718.094 860.609 718.406C858.005 718.719 855.453 718.875 852.953 718.875C847.797 718.875 843.083 718.172 838.812 716.766C834.542 715.359 830.661 713.406 827.172 710.906C823.734 708.354 820.714 705.359 818.109 701.922C815.505 698.484 813.344 694.734 811.625 690.672C809.906 686.609 808.604 682.312 807.719 677.781C806.833 673.25 806.391 668.667 806.391 664.031C806.391 659.188 806.833 654.344 807.719 649.5C808.604 644.656 809.932 639.995 811.703 635.516C813.526 631.036 815.792 626.896 818.5 623.094C821.26 619.24 824.464 615.88 828.109 613.016C831.755 610.151 835.87 607.911 840.453 606.297C845.089 604.682 850.193 603.875 855.766 603.875C860.401 603.875 864.62 604.526 868.422 605.828C872.276 607.078 875.688 608.849 878.656 611.141C881.677 613.38 884.281 616.062 886.469 619.188C888.708 622.312 890.531 625.75 891.938 629.5C893.396 633.198 894.464 637.13 895.141 641.297C895.87 645.411 896.234 649.604 896.234 653.875ZM864.984 649.812C864.984 648.354 864.828 646.87 864.516 645.359C864.203 643.797 863.682 642.391 862.953 641.141C862.276 639.891 861.365 638.875 860.219 638.094C859.073 637.26 857.641 636.844 855.922 636.844C853.839 636.844 851.99 637.417 850.375 638.562C848.812 639.656 847.458 641.062 846.312 642.781C845.167 644.448 844.229 646.271 843.5 648.25C842.771 650.229 842.224 652.052 841.859 653.719L864.984 651.531V649.812ZM998.344 677.469C998.344 683.354 998.266 689.188 998.109 694.969C998.005 700.698 997.823 706.479 997.562 712.312L952.562 711.531C954.125 702.312 955.479 693.12 956.625 683.953C957.771 674.734 958.344 665.438 958.344 656.062C958.344 655.385 958.318 654.292 958.266 652.781C958.214 651.271 958.109 649.578 957.953 647.703C957.797 645.776 957.562 643.823 957.25 641.844C956.99 639.812 956.599 637.964 956.078 636.297C955.609 634.63 955.01 633.276 954.281 632.234C953.604 631.141 952.771 630.594 951.781 630.594C950.01 630.594 948.5 631.115 947.25 632.156C946.052 633.198 945.036 634.552 944.203 636.219C943.422 637.833 942.797 639.656 942.328 641.688C941.859 643.719 941.495 645.75 941.234 647.781C941.026 649.812 940.87 651.74 940.766 653.562C940.714 655.333 940.688 656.792 940.688 657.938C940.427 667.156 940.219 676.323 940.062 685.438C939.906 694.5 939.698 703.667 939.438 712.938L899.594 714.656C900.635 696.271 901.625 677.99 902.562 659.812C903.552 641.635 904.333 623.354 904.906 604.969L941.781 603.094L941.469 615.594C942.927 613.823 944.49 612.156 946.156 610.594C947.875 609.031 949.698 607.703 951.625 606.609C953.552 605.464 955.583 604.578 957.719 603.953C959.906 603.276 962.198 602.938 964.594 602.938C969.021 602.938 972.901 603.667 976.234 605.125C979.568 606.583 982.432 608.562 984.828 611.062C987.224 613.562 989.229 616.531 990.844 619.969C992.458 623.354 993.76 626.974 994.75 630.828C995.74 634.682 996.495 638.719 997.016 642.938C997.536 647.104 997.875 651.219 998.031 655.281C998.24 659.344 998.344 663.276 998.344 667.078C998.344 670.88 998.344 674.344 998.344 677.469ZM413.656 835.438C413.656 842.573 412.406 848.823 409.906 854.188C407.458 859.5 404.073 863.927 399.75 867.469C395.479 871.01 390.453 873.667 384.672 875.438C378.943 877.208 372.771 878.094 366.156 878.094C363.604 878.094 360.792 877.755 357.719 877.078C354.698 876.401 351.625 875.568 348.5 874.578C345.375 873.536 342.354 872.443 339.438 871.297C336.573 870.099 334.021 868.979 331.781 867.938L335.219 835.75C339.646 838.406 344.542 840.438 349.906 841.844C355.323 843.198 360.635 843.875 365.844 843.875C366.833 843.875 368.031 843.849 369.438 843.797C370.844 843.693 372.172 843.458 373.422 843.094C374.724 842.677 375.818 842.078 376.703 841.297C377.589 840.516 378.031 839.396 378.031 837.938C378.031 836.948 377.719 836.115 377.094 835.438C376.469 834.708 375.661 834.135 374.672 833.719C373.682 833.25 372.562 832.911 371.312 832.703C370.062 832.443 368.839 832.26 367.641 832.156C366.443 832.052 365.323 832 364.281 832C363.24 832 362.406 832 361.781 832C357.302 832 353.214 831.219 349.516 829.656C345.87 828.094 342.719 825.932 340.062 823.172C337.458 820.359 335.427 817.052 333.969 813.25C332.51 809.396 331.781 805.229 331.781 800.75C331.781 794.604 333.005 789.109 335.453 784.266C337.953 779.37 341.26 775.229 345.375 771.844C349.542 768.406 354.307 765.776 359.672 763.953C365.036 762.13 370.583 761.219 376.312 761.219C378.865 761.219 381.495 761.323 384.203 761.531C386.911 761.688 389.594 762 392.25 762.469C394.958 762.938 397.589 763.536 400.141 764.266C402.693 764.995 405.115 765.906 407.406 767L404.438 798.719C400.896 797.521 397.172 796.531 393.266 795.75C389.411 794.917 385.635 794.5 381.938 794.5C381.26 794.5 380.375 794.526 379.281 794.578C378.24 794.578 377.12 794.656 375.922 794.812C374.776 794.917 373.604 795.099 372.406 795.359C371.208 795.62 370.141 795.984 369.203 796.453C368.266 796.87 367.51 797.443 366.938 798.172C366.365 798.901 366.104 799.76 366.156 800.75C366.208 801.896 366.625 802.833 367.406 803.562C368.24 804.24 369.281 804.786 370.531 805.203C371.833 805.568 373.24 805.828 374.75 805.984C376.312 806.141 377.849 806.245 379.359 806.297C380.87 806.297 382.276 806.297 383.578 806.297C384.88 806.245 385.948 806.271 386.781 806.375C390.948 806.635 394.698 807.521 398.031 809.031C401.365 810.542 404.177 812.547 406.469 815.047C408.812 817.547 410.583 820.542 411.781 824.031C413.031 827.469 413.656 831.271 413.656 835.438ZM511.391 873.875L472.328 875.75L472.016 842.781H454.047L452.953 877H417.953L420.922 767.156L458.109 768.875L455.766 824.969H473.109L473.266 766.219L508.891 767.156L511.391 873.875ZM615.375 817.156C615.375 821.896 614.828 826.479 613.734 830.906C612.641 835.281 611.052 839.396 608.969 843.25C606.938 847.104 604.438 850.646 601.469 853.875C598.552 857.052 595.245 859.786 591.547 862.078C587.901 864.37 583.917 866.167 579.594 867.469C575.271 868.719 570.688 869.344 565.844 869.344C561.156 869.344 556.677 868.745 552.406 867.547C548.188 866.349 544.229 864.682 540.531 862.547C536.833 860.359 533.474 857.755 530.453 854.734C527.484 851.661 524.932 848.276 522.797 844.578C520.714 840.828 519.073 836.818 517.875 832.547C516.729 828.276 516.156 823.823 516.156 819.188C516.156 814.656 516.703 810.229 517.797 805.906C518.891 801.531 520.453 797.417 522.484 793.562C524.568 789.708 527.068 786.167 529.984 782.938C532.901 779.708 536.156 776.922 539.75 774.578C543.396 772.234 547.328 770.411 551.547 769.109C555.766 767.807 560.219 767.156 564.906 767.156C572.458 767.156 579.333 768.328 585.531 770.672C591.781 773.016 597.094 776.375 601.469 780.75C605.896 785.073 609.307 790.333 611.703 796.531C614.151 802.677 615.375 809.552 615.375 817.156ZM580.688 819.188C580.688 816.948 580.349 814.786 579.672 812.703C579.047 810.568 578.109 808.693 576.859 807.078C575.609 805.411 574.047 804.083 572.172 803.094C570.349 802.052 568.24 801.531 565.844 801.531C563.396 801.531 561.208 801.974 559.281 802.859C557.354 803.745 555.688 804.969 554.281 806.531C552.927 808.042 551.885 809.839 551.156 811.922C550.427 813.953 550.062 816.115 550.062 818.406C550.062 820.594 550.375 822.781 551 824.969C551.625 827.156 552.562 829.135 553.812 830.906C555.062 832.677 556.599 834.109 558.422 835.203C560.297 836.297 562.458 836.844 564.906 836.844C567.354 836.844 569.542 836.375 571.469 835.438C573.448 834.448 575.115 833.146 576.469 831.531C577.823 829.865 578.865 827.964 579.594 825.828C580.323 823.693 580.688 821.479 580.688 819.188ZM711.859 804.969C711.859 810.021 711.104 814.5 709.594 818.406C708.083 822.312 706 825.75 703.344 828.719C700.74 831.635 697.667 834.109 694.125 836.141C690.583 838.12 686.781 839.76 682.719 841.062C678.708 842.312 674.542 843.25 670.219 843.875C665.896 844.448 661.651 844.76 657.484 844.812V878.094H621.078C621.078 872.156 621.078 866.375 621.078 860.75C621.13 855.125 621.156 849.552 621.156 844.031C621.208 838.458 621.234 832.859 621.234 827.234C621.286 821.609 621.339 815.802 621.391 809.812C621.495 803.458 621.521 797.104 621.469 790.75C621.417 784.396 621.547 777.99 621.859 771.531C628.526 769.552 635.193 768.068 641.859 767.078C648.526 766.089 655.401 765.594 662.484 765.594C666.495 765.594 670.505 765.932 674.516 766.609C678.526 767.234 682.354 768.25 686 769.656C689.698 771.062 693.109 772.833 696.234 774.969C699.411 777.052 702.146 779.552 704.438 782.469C706.729 785.385 708.526 788.719 709.828 792.469C711.182 796.219 711.859 800.385 711.859 804.969ZM677.172 807.625C677.172 804.24 676.13 801.609 674.047 799.734C672.016 797.807 669.359 796.844 666.078 796.844C664.984 796.844 663.839 796.948 662.641 797.156C661.495 797.312 660.401 797.521 659.359 797.781L658.422 820.594C659.151 820.698 659.854 820.75 660.531 820.75C661.208 820.75 661.911 820.75 662.641 820.75C664.516 820.75 666.312 820.438 668.031 819.812C669.802 819.188 671.365 818.302 672.719 817.156C674.073 815.958 675.141 814.578 675.922 813.016C676.755 811.401 677.172 809.604 677.172 807.625Z" fill="#96B4D5"/>
</svg>
